<svg width="24" height="24" viewBox="0 0 24 24" fill="none" xmlns="http://www.w3.org/2000/svg">
<path fill-rule="evenodd" clip-rule="evenodd" d="M5.8914 7.14643C6.19156 7.07692 6.49048 7.26722 6.55905 7.57147L8.10143 14.4151C8.12095 14.5017 8.12005 14.5918 8.09879 14.678C8.09355 14.6992 8.08809 14.7164 8.0844 14.7274L7.70081 16.1111H18.2669C18.5748 16.1111 18.8244 16.3641 18.8244 16.6762C18.8244 16.9883 18.5748 17.2413 18.2669 17.2413H7.65457C6.97773 17.2413 6.45538 16.613 6.59497 15.9276C6.59761 15.9146 6.6007 15.9017 6.60424 15.889L6.98243 14.5247L5.47208 7.82318C5.4035 7.51892 5.59124 7.21593 5.8914 7.14643ZM7.03298 14.3516L7.03248 14.3529L7.03298 14.3516Z" fill="#565C70"/>
<path fill-rule="evenodd" clip-rule="evenodd" d="M3 5.46785C3 5.15576 3.2496 4.90276 3.55749 4.90276H5.76068C6.31833 4.90276 6.80717 5.29598 6.92439 5.85429C6.9407 5.93197 6.94068 6.01226 6.92431 6.08992L6.56083 7.81533C6.49654 8.12054 6.20032 8.31513 5.89922 8.24996C5.59811 8.18478 5.40614 7.88453 5.47044 7.57932L5.79457 6.04069C5.78461 6.03581 5.77317 6.03295 5.76068 6.03295H3.55749C3.2496 6.03295 3 5.77995 3 5.46785Z" fill="#565C70"/>
<path fill-rule="evenodd" clip-rule="evenodd" d="M20.589 5.95903C20.886 6.0411 21.0612 6.35172 20.9802 6.65283L19.2646 13.0332C19.1369 13.5617 18.6765 13.9338 18.1438 13.9494L7.61766 15.1031C7.31155 15.1367 7.03657 14.9124 7.00346 14.6021C6.97036 14.2918 7.19168 14.0131 7.49779 13.9795L18.0492 12.823C18.0691 12.8208 18.0891 12.8197 18.1091 12.8197C18.1467 12.8197 18.1746 12.7948 18.1819 12.7635C18.1834 12.757 18.185 12.7506 18.1867 12.7442L19.9045 6.35563C19.9855 6.05453 20.2919 5.87696 20.589 5.95903Z" fill="#565C70"/>
<path fill-rule="evenodd" clip-rule="evenodd" d="M6.59163 19.2987C6.59163 18.3558 7.34906 17.5974 8.27673 17.5974C9.20339 17.5974 9.96034 18.3563 9.96034 19.2987C9.96034 20.2411 9.20339 21 8.27673 21C7.34906 21 6.59163 20.2416 6.59163 19.2987ZM8.27673 18.7276C7.9586 18.7276 7.70661 18.9863 7.70661 19.2987C7.70661 19.6111 7.9586 19.8698 8.27673 19.8698C8.5929 19.8698 8.84537 19.6116 8.84537 19.2987C8.84537 18.9858 8.5929 18.7276 8.27673 18.7276Z" fill="#565C70"/>
<path fill-rule="evenodd" clip-rule="evenodd" d="M15.4555 19.2987C15.4555 18.3561 16.2127 17.5974 17.1399 17.5974C18.0671 17.5974 18.8242 18.3561 18.8242 19.2987C18.8242 20.2413 18.0671 21 17.1399 21C16.2127 21 15.4555 20.2413 15.4555 19.2987ZM17.1399 18.7276C16.8227 18.7276 16.5705 18.9861 16.5705 19.2987C16.5705 19.6113 16.8227 19.8698 17.1399 19.8698C17.457 19.8698 17.7093 19.6113 17.7093 19.2987C17.7093 18.9861 17.457 18.7276 17.1399 18.7276Z" fill="#565C70"/>
<path fill-rule="evenodd" clip-rule="evenodd" d="M13.2581 3C13.566 3 13.8156 3.253 13.8156 3.56509V10.6234C13.8156 10.9355 13.566 11.1885 13.2581 11.1885C12.9502 11.1885 12.7006 10.9355 12.7006 10.6234V3.56509C12.7006 3.253 12.9502 3 13.2581 3Z" fill="#565C70"/>
<path fill-rule="evenodd" clip-rule="evenodd" d="M9.21893 7.09435C9.21893 6.78225 9.46852 6.52926 9.77641 6.52926H16.7398C17.0477 6.52926 17.2973 6.78225 17.2973 7.09435C17.2973 7.40644 17.0477 7.65944 16.7398 7.65944H9.77641C9.46852 7.65944 9.21893 7.40644 9.21893 7.09435Z" fill="#565C70"/>
</svg>
