<svg width="24" height="25" viewBox="0 0 24 25" fill="none" xmlns="http://www.w3.org/2000/svg">
<path d="M12.958 12.5L18.8016 18.3436C19.0661 18.6081 19.0661 19.037 18.8016 19.3016C18.537 19.5661 18.1081 19.5661 17.8436 19.3016L12 13.458L6.15643 19.3016C5.89188 19.5661 5.46296 19.5661 5.19841 19.3016C4.93386 19.037 4.93386 18.6081 5.19841 18.3436L11.042 12.5L5.19841 6.65643C4.93386 6.39188 4.93386 5.96296 5.19841 5.69841C5.46296 5.43386 5.89188 5.43386 6.15643 5.69841L12 11.542L17.8436 5.69841C18.1081 5.43386 18.537 5.43386 18.8016 5.69841C19.0661 5.96296 19.0661 6.39188 18.8016 6.65643L12.958 12.5Z" fill="#565C70"/>
</svg>
