<svg width="24" height="25" viewBox="0 0 24 25" fill="none" xmlns="http://www.w3.org/2000/svg">
<path fill-rule="evenodd" clip-rule="evenodd" d="M19.2457 19.5324L14.5181 14.8056L15.55 13.7736L20.2781 18.501C20.9054 19.1296 20.9068 20.1496 20.2782 20.7782C19.6495 21.4069 18.6295 21.4078 18.0007 20.7779L13.2729 16.0508L14.3047 15.0188L19.0329 19.7462C19.0909 19.8043 19.1868 19.8057 19.2462 19.7462C19.3043 19.6882 19.305 19.592 19.2457 19.5324Z" fill="#909090"/>
<path fill-rule="evenodd" clip-rule="evenodd" d="M9.90844 4.70942C6.76152 4.70942 4.20942 7.26141 4.20942 10.4092C4.20942 13.5568 6.76141 16.1082 9.90844 16.1082C13.0563 16.1082 15.6082 13.5568 15.6082 10.4092C15.6082 7.26146 13.0562 4.70942 9.90844 4.70942ZM2.75 10.4092C2.75 6.4555 5.9554 3.25 9.90844 3.25C13.8622 3.25 17.0676 6.45545 17.0676 10.4092C17.0676 14.363 13.8621 17.5676 9.90844 17.5676C5.9555 17.5676 2.75 14.363 2.75 10.4092Z" fill="#909090"/>
</svg>
